<svg width="29" height="28" viewBox="0 0 29 28" fill="none" xmlns="http://www.w3.org/2000/svg">
<path d="M14.5198 6C13.5177 6 12.5381 6.29325 11.7049 6.84265C10.8717 7.39206 10.2223 8.17295 9.8388 9.08658C9.45532 10.0002 9.35498 11.0055 9.55048 11.9755C9.74598 12.9454 10.2285 13.8363 10.9371 14.5355C11.6457 15.2348 12.5485 15.711 13.5313 15.9039C14.5142 16.0969 15.5329 15.9978 16.4587 15.6194C17.3845 15.241 18.1758 14.6001 18.7326 13.7779C19.2893 12.9556 19.5865 11.9889 19.5865 11C19.5865 9.67392 19.0527 8.40215 18.1025 7.46447C17.1523 6.52678 15.8636 6 14.5198 6Z" fill="#A2A2A8"/>
<path d="M14.5199 0C11.7141 0 8.97122 0.821086 6.63823 2.35943C4.30525 3.89777 2.48691 6.08427 1.41315 8.64243C0.339399 11.2006 0.0584555 14.0155 0.605851 16.7313C1.15325 19.447 2.5044 21.9416 4.48844 23.8995C6.47248 25.8574 9.0003 27.1908 11.7522 27.731C14.5042 28.2712 17.3567 27.9939 19.9489 26.9343C22.5412 25.8747 24.7569 24.0803 26.3157 21.778C27.8746 19.4757 28.7066 16.7689 28.7066 14C28.7023 10.2883 27.2063 6.72977 24.5467 4.10518C21.8871 1.48059 18.2811 0.00423472 14.5199 0ZM22.6185 22.926C22.5983 21.6143 22.0568 20.363 21.1106 19.4416C20.1644 18.5202 18.8892 18.0025 17.5599 18H11.4799C10.1506 18.0025 8.87549 18.5202 7.9293 19.4416C6.9831 20.363 6.44156 21.6143 6.42137 22.926C4.58375 21.3067 3.28786 19.1749 2.7053 16.8127C2.12274 14.4505 2.28099 11.9693 3.15908 9.69786C4.03717 7.42637 5.59369 5.47167 7.62254 4.09257C9.65139 2.71347 12.0569 1.97503 14.5204 1.97503C16.984 1.97503 19.3895 2.71347 21.4183 4.09257C23.4472 5.47167 25.0037 7.42637 25.8818 9.69786C26.7599 11.9693 26.9181 14.4505 26.3356 16.8127C25.753 19.1749 24.4571 21.3067 22.6195 22.926H22.6185Z" fill="#A2A2A8"/>
</svg>
