<svg width="31" height="30" viewBox="0 0 31 30" fill="none" xmlns="http://www.w3.org/2000/svg">
<path d="M15.5031 29C18.5566 28.9993 21.5261 28.0004 23.9591 26.1554C26.3922 24.3104 28.1553 21.7206 28.9799 18.7806C29.8044 15.8406 29.6452 12.7116 28.5265 9.87053C27.4077 7.02942 25.3908 4.63196 22.783 3.04352C20.1752 1.45507 17.1197 0.762734 14.0819 1.07202C11.0442 1.38131 8.19085 2.67525 5.95675 4.75667C3.72264 6.83809 2.23027 9.59285 1.70707 12.6011C1.18387 15.6094 1.65852 18.7063 3.0587 21.4198L1.50314 29L9.08336 27.4444C11.006 28.4384 13.19 29 15.5031 29Z" stroke="white" stroke-width="2" stroke-linecap="round" stroke-linejoin="round"/>
<path d="M10.5 15H10.51V15.01H10.5V15ZM15 15H15.01V15.01H15V15ZM19.5 15H19.51V15.01H19.5V15Z" stroke="white" stroke-width="3" stroke-linejoin="round"/>
</svg>
