<svg width="30" height="20" viewBox="0 0 30 20" fill="none" xmlns="http://www.w3.org/2000/svg">
<path d="M1 4.59094H7.22222M29 4.59094H13.4444M1 15.4091H19.6667M29 15.4091H25.8889" stroke="white" stroke-width="2" stroke-linecap="round"/>
<path d="M10.3333 7.68182C12.0515 7.68182 13.4444 6.29797 13.4444 4.59091C13.4444 2.88385 12.0515 1.5 10.3333 1.5C8.61506 1.5 7.22217 2.88385 7.22217 4.59091C7.22217 6.29797 8.61506 7.68182 10.3333 7.68182Z" stroke="white" stroke-width="2" stroke-linecap="round"/>
<path d="M22.7779 18.5001C24.4961 18.5001 25.889 17.1162 25.889 15.4091C25.889 13.7021 24.4961 12.3182 22.7779 12.3182C21.0596 12.3182 19.6667 13.7021 19.6667 15.4091C19.6667 17.1162 21.0596 18.5001 22.7779 18.5001Z" stroke="white" stroke-width="2" stroke-linecap="round"/>
</svg>
