<svg width="25" height="28" viewBox="0 0 25 28" fill="none" xmlns="http://www.w3.org/2000/svg">
<path d="M15.75 6.36955e-06C16.5628 -0.000237621 17.3596 0.225941 18.051 0.653179C18.7425 1.08042 19.3012 1.69182 19.6646 2.41884C20.028 3.14585 20.1817 3.95973 20.1085 4.76921C20.0353 5.57869 19.738 6.35177 19.25 7.00176L22.75 7.00001C23.2141 7.00001 23.6592 7.18438 23.9874 7.51257C24.3156 7.84076 24.5 8.28588 24.5 8.75V14C24.5 14.4641 24.3156 14.9093 23.9874 15.2374C23.6592 15.5656 23.2141 15.75 22.75 15.75V23.625C22.75 24.7853 22.2891 25.8981 21.4686 26.7186C20.6481 27.5391 19.5353 28 18.375 28H6.125C4.96468 28 3.85188 27.5391 3.03141 26.7186C2.21094 25.8981 1.75 24.7853 1.75 23.625V15.75C1.28587 15.75 0.840752 15.5656 0.512563 15.2374C0.184374 14.9093 0 14.4641 0 14V8.75C0 8.28588 0.184374 7.84076 0.512563 7.51257C0.840752 7.18438 1.28587 7.00001 1.75 7.00001L5.25 7.00176C4.90528 6.54213 4.65446 6.0191 4.51188 5.46255C4.36929 4.90599 4.33772 4.3268 4.41897 3.75804C4.50022 3.18928 4.6927 2.64209 4.98542 2.14772C5.27814 1.65335 5.66537 1.22148 6.125 0.876756C6.58463 0.532036 7.10765 0.281222 7.66421 0.138634C8.22076 -0.00395425 8.79996 -0.0355241 9.36872 0.0457271C9.93748 0.126978 10.4847 0.31946 10.979 0.612181C11.4734 0.904902 11.9053 1.29213 12.25 1.75176C12.6564 1.20707 13.1845 0.764976 13.7923 0.460813C14.4 0.15665 15.0704 -0.0011555 15.75 6.36955e-06ZM11.375 15.75H3.5V23.625C3.5 24.3212 3.77656 24.9889 4.26884 25.4812C4.76113 25.9734 5.42881 26.25 6.125 26.25H11.375V15.75ZM21 15.75H13.125V26.25H18.375C19.0712 26.25 19.7389 25.9734 20.2312 25.4812C20.7234 24.9889 21 24.3212 21 23.625V15.75ZM11.375 8.75H1.75V14H11.375V8.75ZM22.75 8.75H13.125V14H22.75V8.75ZM15.75 1.75001C15.0538 1.75001 14.3861 2.02657 13.8938 2.51885C13.4016 3.01113 13.125 3.67881 13.125 4.37501V7.00001H15.75C16.4462 7.00001 17.1139 6.72344 17.6062 6.23116C18.0984 5.73888 18.375 5.0712 18.375 4.37501C18.375 3.67881 18.0984 3.01113 17.6062 2.51885C17.1139 2.02657 16.4462 1.75001 15.75 1.75001ZM8.75 1.75001C8.07587 1.75034 7.42771 2.01001 6.93982 2.47522C6.45194 2.94043 6.16173 3.57551 6.12933 4.24886C6.09693 4.92221 6.32483 5.58221 6.76581 6.09211C7.20678 6.602 7.82701 6.9227 8.498 6.98775L8.75 7.00001H11.375V4.37501L11.3627 4.12301C11.3001 3.47347 10.9978 2.87056 10.5147 2.43184C10.0317 1.99312 9.40254 1.75004 8.75 1.75001Z" fill="#A2A2A8"/>
</svg>
