<svg width="100" height="19" viewBox="0 0 100 19" fill="none" xmlns="http://www.w3.org/2000/svg">
<path d="M0 19V0H8.92308C10.3077 0 11.4444 0.304866 12.3333 0.914597C13.2393 1.50466 13.906 2.32091 14.3333 3.36335C14.7778 4.4058 15 5.59576 15 6.93323C15 8.2117 14.7179 9.34265 14.1538 10.3261C13.5897 11.2899 12.8803 12.0569 12.0256 12.6273C12.3504 12.9224 12.6239 13.3551 12.8462 13.9255L14.7692 19H9.02564L7.33333 14.604C7.21368 14.309 7.08547 14.1025 6.94872 13.9845C6.81197 13.8665 6.59829 13.8075 6.30769 13.8075H5.51282V19H0ZM5.51282 8.90994H7.53846C8.76923 8.90994 9.38462 8.25104 9.38462 6.93323C9.38462 5.59576 8.81197 4.92702 7.66667 4.92702H5.51282V8.90994Z" fill="#838283"/>
<path d="M17 19V0H30V4.69099H22.5788V7.11025H29.0399V11.9193H22.5788V14.309H30V19H17Z" fill="#838283"/>
<path d="M32 19V15.8727L38.6033 5.04503H32.3583V0H46V3.48137L39.3199 14.1615H46V19H32Z" fill="#838283"/>
<path d="M51.6755 0H56.1102L51.6755 6.01863V0Z" fill="#838283"/>
<path d="M56.6382 7.84783L62.5248 0H65V19H63L56.6382 7.84783Z" fill="#838283"/>
<path d="M71 19H73V0H71V19Z" fill="#838283"/>
<path d="M84.1842 19H78.6579V10.2671L84.1842 19Z" fill="#838283"/>
<path d="M100 19L89 19V0H100C98.0771 0 96.4481 0.314759 95.1128 0.944277C93.7775 1.5738 92.7537 2.58484 92.0415 3.97741C91.3472 5.36998 91 7.22038 91 9.52861C91 11.7987 91.3472 13.63 92.0415 15.0226C92.7537 16.4152 93.7775 17.4262 95.1128 18.0557C96.4481 18.6852 98.0771 19 100 19Z" fill="#838283"/>
<path d="M100 13.7922V5.23645C98.8783 5.23645 98.0683 5.56074 97.5697 6.20934C97.089 6.83886 96.8487 7.94528 96.8487 9.52861C96.8487 11.0356 97.089 12.123 97.5697 12.7907C98.0683 13.4583 98.8783 13.7922 100 13.7922Z" fill="#838283"/>
<path d="M77.7632 0H83.3421V8.76242L77.7632 0Z" fill="#838283"/>
<path d="M53.1537 11.8602L56.9814 19H51.6755V13.778L53.1537 11.8602Z" fill="#838283"/>
</svg>
