<svg width="60" height="60" viewBox="0 0 60 60" fill="none" xmlns="http://www.w3.org/2000/svg">
<rect width="60" height="60" rx="30" fill="white"/>
<path fill-rule="evenodd" clip-rule="evenodd" d="M30.5 22C30.2159 22 29.9434 22.1053 29.7425 22.2929C29.5416 22.4804 29.4288 22.7347 29.4288 22.9999L29.4288 34.5846L24.831 30.2911C24.7314 30.1981 24.6132 30.1244 24.483 30.0741C24.3529 30.0237 24.2134 29.9978 24.0726 29.9978C23.9317 29.9978 23.7923 30.0237 23.6621 30.0741C23.532 30.1244 23.4138 30.1981 23.3142 30.2911C23.2146 30.384 23.1355 30.4944 23.0816 30.6159C23.0277 30.7373 23 30.8675 23 30.999C23 31.1305 23.0277 31.2607 23.0816 31.3821C23.1355 31.5036 23.2146 31.614 23.3142 31.7069L29.7416 37.7062C29.8411 37.7994 29.9593 37.8732 30.0894 37.9236C30.2196 37.9741 30.3591 38 30.5 38C30.6409 38 30.7804 37.9741 30.9106 37.9236C31.0407 37.8732 31.1589 37.7994 31.2584 37.7062L37.6858 31.7069C37.887 31.5192 38 31.2645 38 30.999C38 30.7335 37.887 30.4788 37.6858 30.2911C37.4847 30.1033 37.2119 29.9978 36.9274 29.9978C36.6429 29.9978 36.3701 30.1033 36.169 30.2911L31.5712 34.5846L31.5712 22.9999C31.5712 22.7347 31.4584 22.4804 31.2575 22.2929C31.0566 22.1053 30.7841 22 30.5 22Z" fill="black"/>
</svg>
