<svg width="8" height="13" viewBox="0 0 8 13" fill="none" xmlns="http://www.w3.org/2000/svg">
<path d="M7.69408 0.28615C7.88996 0.469427 8 0.717971 8 0.977125C8 1.23628 7.88996 1.48482 7.69408 1.6681L2.52205 6.5059L7.69408 11.3437C7.88441 11.528 7.98973 11.7749 7.98734 12.0312C7.98496 12.2874 7.87508 12.5325 7.68135 12.7137C7.48763 12.895 7.22557 12.9977 6.95161 13C6.67765 13.0022 6.41372 12.9037 6.21666 12.7257L0.30592 7.19688C0.11004 7.0136 4.76837e-07 6.76505 4.76837e-07 6.5059C4.76837e-07 6.24675 0.11004 5.9982 0.30592 5.81493L6.21666 0.28615C6.4126 0.102928 6.67831 0 6.95537 0C7.23243 0 7.49814 0.102928 7.69408 0.28615Z" fill="#A2A2A8"/>
</svg>
