<svg width="60" height="60" viewBox="0 0 60 60" fill="none" xmlns="http://www.w3.org/2000/svg">
<path fill-rule="evenodd" clip-rule="evenodd" d="M22 29.5C22 29.7841 22.1053 30.0566 22.2929 30.2575C22.4804 30.4584 22.7347 30.5712 22.9999 30.5712H34.5846L30.2911 35.169C30.1981 35.2686 30.1244 35.3868 30.0741 35.517C30.0237 35.6471 29.9978 35.7866 29.9978 35.9274C29.9978 36.0683 30.0237 36.2077 30.0741 36.3379C30.1244 36.468 30.1981 36.5862 30.2911 36.6858C30.384 36.7854 30.4944 36.8645 30.6159 36.9184C30.7373 36.9723 30.8675 37 30.999 37C31.1305 37 31.2607 36.9723 31.3821 36.9184C31.5036 36.8645 31.614 36.7854 31.7069 36.6858L37.7062 30.2584C37.7994 30.1589 37.8732 30.0407 37.9236 29.9106C37.9741 29.7804 38 29.6409 38 29.5C38 29.3591 37.9741 29.2196 37.9236 29.0894C37.8732 28.9593 37.7994 28.8411 37.7062 28.7416L31.7069 22.3142C31.5192 22.113 31.2645 22 30.999 22C30.7335 22 30.4788 22.113 30.2911 22.3142C30.1033 22.5153 29.9978 22.7881 29.9978 23.0726C29.9978 23.3571 30.1033 23.6299 30.2911 23.831L34.5846 28.4288H22.9999C22.7347 28.4288 22.4804 28.5416 22.2929 28.7425C22.1053 28.9434 22 29.2159 22 29.5Z" fill="white"/>
<rect x="1" y="1" width="58" height="58" rx="29" stroke="white" stroke-width="2"/>
</svg>
