<svg width="40" height="40" viewBox="0 0 40 40" fill="none" xmlns="http://www.w3.org/2000/svg">
<rect x="1" y="1" width="38" height="38" rx="19" stroke="white" stroke-width="2"/>
<path d="M15.8394 24.2223C16.509 25.2501 17.4607 26.0512 18.5742 26.5242C19.6877 26.9973 20.913 27.1211 22.095 26.8799C23.2771 26.6388 24.3629 26.0435 25.2151 25.1694C26.0674 24.2953 26.6477 23.1817 26.8829 21.9693C27.118 20.7569 26.9973 19.5003 26.5361 18.3582C26.0749 17.2162 25.2938 16.2401 24.2917 15.5533C23.2896 14.8666 22.1114 14.5 20.9062 14.5H14M14 14.5L16.4375 12M14 14.5L16.4375 17" stroke="white" stroke-width="2" stroke-linecap="round" stroke-linejoin="round"/>
</svg>
