<svg width="29" height="25" viewBox="0 0 29 25" fill="none" xmlns="http://www.w3.org/2000/svg">
<path d="M1.57705 24H1.57715L1.63503 23.9702C1.63506 23.9701 1.63508 23.9701 1.6351 23.9701C3.19834 21.9498 4.73368 20.2745 6.89847 19.1436L6.89955 19.143C8.90263 18.0996 11.356 17.5885 14.4712 17.4935L15.5017 17.4621V18.493V23.9106C15.5019 23.9293 15.5075 23.9469 15.5169 23.9612L14.6805 24.5094L15.5169 23.9612C15.5263 23.9755 15.5387 23.9854 15.5515 23.991C15.5643 23.9965 15.5778 23.9979 15.5907 23.9956C15.6035 23.9933 15.6165 23.9872 15.6277 23.9766C15.628 23.9764 15.6282 23.9762 15.6284 23.976L27.4728 12.5645C27.4808 12.5569 27.4876 12.5472 27.4925 12.5357L28.4107 12.9248L27.4925 12.5357C27.4974 12.5242 27.5 12.5114 27.5 12.4983C27.5 12.4852 27.4974 12.4725 27.4925 12.461C27.4876 12.4495 27.4808 12.4398 27.4728 12.4321L15.6284 1.02066C15.6282 1.02045 15.628 1.02025 15.6278 1.02005C15.6165 1.0095 15.6035 1.00337 15.5907 1.00107C15.5778 0.998738 15.5643 1.00019 15.5515 1.00571C15.5387 1.01127 15.5263 1.02114 15.5169 1.03548L14.6805 0.487256L15.5169 1.03548C15.5075 1.04974 15.5019 1.06734 15.5017 1.0861V6.54375V7.4984L14.5481 7.54267C9.80296 7.76295 6.40696 9.51853 4.26531 12.6685L4.26527 12.6686C2.46696 15.3132 1.5 19.0637 1.5 23.9129C1.5 23.939 1.51035 23.9621 1.52584 23.9778C1.54102 23.9931 1.55963 24 1.57705 24Z" stroke="white" stroke-width="2"/>
</svg>
