<svg width="30" height="30" viewBox="0 0 30 30" fill="none" xmlns="http://www.w3.org/2000/svg">
<path d="M13.7038 1.88616C14.1518 0.704613 15.8471 0.704613 16.2965 1.88616L19.1944 9.9134C19.2955 10.1749 19.4735 10.3996 19.7049 10.5578C19.9364 10.716 20.2104 10.8003 20.4907 10.7996H27.6122C28.9282 10.7996 29.5021 12.4375 28.4676 13.2397L23.3998 17.7993C23.1728 17.9738 23.0069 18.2157 22.9259 18.4903C22.8449 18.765 22.853 19.0582 22.949 19.328L24.7997 27.1718C25.2505 28.4318 23.7918 29.5139 22.6886 28.7384L15.8051 24.3706C15.5694 24.2049 15.2883 24.116 15.0002 24.116C14.712 24.116 14.4309 24.2049 14.1952 24.3706L7.31171 28.7384C6.20996 29.5139 4.74982 28.4304 5.2006 27.1718L7.05132 19.328C7.14733 19.0582 7.15542 18.765 7.07443 18.4903C6.99345 18.2157 6.82755 17.9738 6.60054 17.7993L1.53277 13.2397C0.496813 12.4375 1.07359 10.7996 2.38673 10.7996H9.50821C9.78861 10.8005 10.0627 10.7163 10.2942 10.558C10.5256 10.3998 10.7036 10.175 10.8046 9.9134L13.7024 1.88616H13.7038Z" stroke="#A2A2A8" stroke-width="2" stroke-linecap="round" stroke-linejoin="round"/>
</svg>
